<svg width="45" height="46" viewBox="0 0 45 46" fill="none" xmlns="http://www.w3.org/2000/svg">
<path d="M22.5 4.71851C12.42 4.71851 4.21875 12.9198 4.21875 22.9998C4.21875 33.0798 12.42 41.281 22.5 41.281C32.58 41.281 40.7812 33.0798 40.7812 22.9998C40.7812 12.9198 32.58 4.71851 22.5 4.71851ZM22.5 7.53101C22.9753 7.53101 23.4422 7.56023 23.9062 7.60242V10.3435H21.0937L19.6875 14.5623H18.2812V15.9685H25.3125L26.7187 17.3748H28.125V18.781L26.7187 20.1873L21.0937 18.781L15.4687 22.9998V27.2185L18.2812 30.031H22.5V33.5466L23.9062 37.0623H25.3125L29.5312 31.4373V30.031L30.9375 27.2185V25.8123H29.5312L28.125 22.9998L29.5312 21.5935L31.6406 22.9998L35.1562 21.5935V20.1873H37.6996C37.8683 21.1013 37.9687 22.0379 37.9687 22.9998C37.9687 31.5287 31.0289 38.4685 22.5 38.4685C13.9711 38.4685 7.03125 31.5287 7.03125 22.9998C7.03125 14.4708 13.9711 7.53101 22.5 7.53101Z" fill="#DAD2D8"/>
</svg>
