<svg width="36" height="36" viewBox="0 0 36 36" fill="none" xmlns="http://www.w3.org/2000/svg">
<rect x="0.5" y="0.5" width="35" height="35" rx="17.5" stroke="white"/>
<g clip-path="url(#clip0_1_732)">
<path d="M18.0028 13.8926C15.7341 13.8926 13.8975 15.7312 13.8975 17.9979C13.8975 20.2666 15.7361 22.1032 18.0028 22.1032C20.2715 22.1032 22.1081 20.2646 22.1081 17.9979C22.1081 15.7292 20.2695 13.8926 18.0028 13.8926ZM18.0028 20.6626C16.5301 20.6626 15.3381 19.4699 15.3381 17.9979C15.3381 16.5259 16.5308 15.3332 18.0028 15.3332C19.4748 15.3332 20.6675 16.5259 20.6675 17.9979C20.6681 19.4699 19.4755 20.6626 18.0028 20.6626Z" fill="white"/>
<path d="M21.2988 10.0512C19.8268 9.98257 16.1808 9.9859 14.7075 10.0512C13.4128 10.1119 12.2708 10.4246 11.3502 11.3452C9.81148 12.8839 10.0082 14.9572 10.0082 17.9979C10.0082 21.1099 9.83482 23.1352 11.3502 24.6506C12.8948 26.1946 14.9982 25.9926 18.0028 25.9926C21.0855 25.9926 22.1495 25.9946 23.2395 25.5726C24.7215 24.9972 25.8402 23.6726 25.9495 21.2932C26.0188 19.8206 26.0148 16.1752 25.9495 14.7019C25.8175 11.8932 24.3102 10.1899 21.2988 10.0512ZM23.6288 23.6326C22.6202 24.6412 21.2208 24.5512 17.9835 24.5512C14.6502 24.5512 13.3135 24.6006 12.3382 23.6226C11.2148 22.5046 11.4182 20.7092 11.4182 17.9872C11.4182 14.3039 11.0402 11.6512 14.7368 11.4619C15.5862 11.4319 15.8362 11.4219 17.9742 11.4219L18.0042 11.4419C21.5568 11.4419 24.3442 11.0699 24.5115 14.7659C24.5495 15.6092 24.5582 15.8626 24.5582 17.9972C24.5575 21.2919 24.6202 22.6366 23.6288 23.6326Z" fill="white"/>
<path d="M22.2708 14.6899C22.8006 14.6899 23.2301 14.2604 23.2301 13.7306C23.2301 13.2007 22.8006 12.7712 22.2708 12.7712C21.741 12.7712 21.3115 13.2007 21.3115 13.7306C21.3115 14.2604 21.741 14.6899 22.2708 14.6899Z" fill="white"/>
</g>
<defs>
<clipPath id="clip0_1_732">
<rect width="16" height="16" fill="white" transform="translate(10 10)"/>
</clipPath>
</defs>
</svg>
