<svg width="40" height="40" viewBox="0 0 40 40" fill="none" xmlns="http://www.w3.org/2000/svg">
<rect x="0.555556" y="0.555556" width="38.8889" height="38.8889" rx="19.4444" stroke="white" stroke-width="1.11111"/>
<path d="M20 12.6931C15.969 12.6931 12.6932 15.9689 12.6932 20C12.6932 24.031 15.969 27.3068 20 27.3068C24.0311 27.3068 27.3069 24.031 27.3069 20C27.3069 15.9689 24.0311 12.6931 20 12.6931ZM20 13.2552C23.7281 13.2552 26.7448 16.2719 26.7448 20C26.7448 23.7281 23.7281 26.7448 20 26.7448C16.272 26.7448 13.2552 23.7281 13.2552 20C13.2552 16.2719 16.272 13.2552 20 13.2552ZM20 14.3793C16.9021 14.3793 14.3794 16.902 14.3794 20C14.3794 23.0979 16.9021 25.6206 20 25.6206C23.098 25.6206 25.6207 23.0979 25.6207 20C25.6207 16.902 23.098 14.3793 20 14.3793ZM20 15.5034C22.4898 15.5034 24.4966 17.5102 24.4966 20C24.4966 22.4897 22.4898 24.4965 20 24.4965C17.5103 24.4965 15.5035 22.4897 15.5035 20C15.5035 17.5102 17.5103 15.5034 20 15.5034ZM20 16.6276C18.1448 16.6276 16.6276 18.1447 16.6276 20C16.6276 21.8552 18.1448 23.3724 20 23.3724C21.8553 23.3724 23.3724 21.8552 23.3724 20C23.3724 18.1447 21.8553 16.6276 20 16.6276ZM20 17.7517C21.2493 17.7517 22.2483 18.7507 22.2483 20C22.2483 21.2493 21.2493 22.2482 20 22.2482C18.7508 22.2482 17.7518 21.2493 17.7518 20C17.7518 18.7507 18.7508 17.7517 20 17.7517ZM20 18.8758C19.3787 18.8758 18.8759 19.3786 18.8759 20C18.8759 20.6213 19.3787 21.1241 20 21.1241C20.6214 21.1241 21.1242 20.6213 21.1242 20C21.1242 19.3786 20.6214 18.8758 20 18.8758Z" fill="white" stroke="white" stroke-width="0.856481"/>
</svg>
