<svg width="48" height="48" viewBox="0 0 48 48" fill="none" xmlns="http://www.w3.org/2000/svg">
<path d="M0 24C0 10.7452 10.7452 0 24 0C37.2548 0 48 10.7452 48 24C48 37.2548 37.2548 48 24 48C10.7452 48 0 37.2548 0 24Z" fill="white"/>
<path d="M25.7191 22.7316L31.8697 15.7358L32.0217 15.5628H31.7914H30.3212H30.274L30.2429 15.5982L24.9429 21.6265L20.7161 15.6071L20.685 15.5628H20.6309H15.668H15.4675L15.5827 15.7269L22.0424 24.9259L15.5897 32.2649L15.4377 32.4378H15.668H17.1383H17.1854L17.2166 32.4024L22.8184 26.0308L27.2865 32.3935L27.3176 32.4378H27.3717H32.3346H32.5351L32.4199 32.2738L25.7191 22.7316ZM28.1171 31.1957L23.6772 24.9817V24.9814L23.6578 24.9542L22.9985 24.0315L17.8706 16.8542H19.8729L24.075 22.7358L24.1598 22.6753L24.075 22.7358L24.7343 23.6585L30.1194 31.1957H28.1171Z" fill="black" stroke="black" stroke-width="0.208333"/>
</svg>
