<svg width="36" height="36" viewBox="0 0 36 36" fill="none" xmlns="http://www.w3.org/2000/svg">
<rect x="0.5" y="0.5" width="35" height="35" rx="17.5" stroke="white"/>
<path d="M19.3768 16.9847L24.2973 11.388L24.4189 11.2497H24.2347H23.0585H23.0208L22.9959 11.278L18.7559 16.1006L15.3744 11.2851L15.3496 11.2497H15.3062H11.3359H11.1756L11.2677 11.3809L16.4355 18.7401L11.2734 24.6113L11.1517 24.7497H11.3359H12.5122H12.5499L12.5748 24.7214L17.0563 19.6241L20.6308 24.7142L20.6557 24.7497H20.699H24.6693H24.8296L24.7375 24.6185L19.3768 16.9847ZM21.2952 23.756L17.7433 18.7848V18.7845L17.7278 18.7628L17.2004 18.0246L13.098 12.2828H14.6999L18.0616 16.9881L18.1294 16.9396L18.0616 16.9881L18.589 17.7262L22.8971 23.756H21.2952Z" fill="white" stroke="white" stroke-width="0.166667"/>
</svg>
