<svg width="36" height="36" viewBox="0 0 36 36" fill="none" xmlns="http://www.w3.org/2000/svg">
<rect x="0.5" y="0.5" width="35" height="35" rx="17.5" stroke="white"/>
<g clip-path="url(#clip0_1_735)">
<path d="M25.6462 13.9524L25.6662 14.083C25.4729 13.397 24.9509 12.8677 24.2875 12.675L24.2735 12.6717C23.0262 12.333 18.0069 12.333 18.0069 12.333C18.0069 12.333 13.0002 12.3264 11.7402 12.6717C11.0642 12.8677 10.5415 13.397 10.3515 14.069L10.3482 14.083C9.8822 16.517 9.87886 19.4417 10.3689 22.0477L10.3482 21.9157C10.5415 22.6017 11.0635 23.131 11.7269 23.3237L11.7409 23.327C12.9869 23.6663 18.0075 23.6664 18.0075 23.6664C18.0075 23.6664 23.0135 23.6663 24.2742 23.327C24.9509 23.131 25.4735 22.6017 25.6635 21.9297L25.6669 21.9157C25.8789 20.7837 26.0002 19.481 26.0002 18.1504C26.0002 18.1017 26.0002 18.0524 25.9995 18.003C26.0002 17.9577 26.0002 17.9037 26.0002 17.8497C26.0002 16.5184 25.8789 15.2157 25.6462 13.9524ZM16.4055 20.4337V15.5717L20.5829 18.0064L16.4055 20.4337Z" fill="white"/>
</g>
<defs>
<clipPath id="clip0_1_735">
<rect width="16" height="16" fill="white" transform="translate(10 10)"/>
</clipPath>
</defs>
</svg>
